<?xml version="1.0" encoding="UTF-8" standalone="no"?>
<!-- Created with Inkscape (http://www.inkscape.org/) -->

<svg
   version="1.1"
   id="svg9"
   xml:space="preserve"
   width="215.43306"
   height="19.401066"
   viewBox="0 0 215.43306 19.401066"
   sodipodi:docname="mse-small-margin.svg"
   inkscape:version="1.1.1 (c3084ef, 2021-09-22)"
   xmlns:inkscape="http://www.inkscape.org/namespaces/inkscape"
   xmlns:sodipodi="http://sodipodi.sourceforge.net/DTD/sodipodi-0.dtd"
   xmlns="http://www.w3.org/2000/svg"
   xmlns:svg="http://www.w3.org/2000/svg"><defs
     id="defs13"><clipPath
       clipPathUnits="userSpaceOnUse"
       id="clipPath31"><path
         d="m 42.52,375.01 h 161.575 v 14.551 H 42.52 Z"
         id="path29" /></clipPath><clipPath
       clipPathUnits="userSpaceOnUse"
       id="clipPath159"><path
         d="m 569.785,30.903 h 4.272 v 20.548 h -4.272 z"
         id="path157" /></clipPath><clipPath
       clipPathUnits="userSpaceOnUse"
       id="clipPath171"><path
         d="m 42.52,285.582 h 41.467 v 60.683 H 42.52 Z"
         id="path169" /></clipPath><clipPath
       clipPathUnits="userSpaceOnUse"
       id="clipPath271"><path
         d="m 42.999,271.509 h 59.875 v 4.572 H 42.999 Z"
         id="path269" /></clipPath><clipPath
       clipPathUnits="userSpaceOnUse"
       id="clipPath283"><path
         d="m 104.795,270.742 h 13.293 v 5.376 h -13.293 z"
         id="path281" /></clipPath><clipPath
       clipPathUnits="userSpaceOnUse"
       id="clipPath295"><path
         d="m 43.035,263.285 h 84.775 v 5.868 H 43.035 Z"
         id="path293" /></clipPath><clipPath
       clipPathUnits="userSpaceOnUse"
       id="clipPath307"><path
         d="m 42.844,256.286 h 34.927 v 5.795 H 42.844 Z"
         id="path305" /></clipPath><clipPath
       clipPathUnits="userSpaceOnUse"
       id="clipPath319"><path
         d="m 42.819,250.51 h 23.574 v 4.572 H 42.819 Z"
         id="path317" /></clipPath><clipPath
       clipPathUnits="userSpaceOnUse"
       id="clipPath331"><path
         d="m 42.58,242.742 h 57.874 v 5.376 H 42.58 Z"
         id="path329" /></clipPath><clipPath
       clipPathUnits="userSpaceOnUse"
       id="clipPath343"><path
         d="m 42.97,236.509 h 31.439 v 4.644 H 42.97 Z"
         id="path341" /></clipPath><clipPath
       clipPathUnits="userSpaceOnUse"
       id="clipPath355"><path
         d="m 42.562,229.509 h 32.436 v 4.644 H 42.562 Z"
         id="path353" /></clipPath><clipPath
       clipPathUnits="userSpaceOnUse"
       id="clipPath369"><path
         d="m 42.52,181.754 h 92.828 v 21.26 H 42.52 Z"
         id="path367" /></clipPath><clipPath
       clipPathUnits="userSpaceOnUse"
       id="clipPath605"><path
         d="m 42.981,166.914 h 111.01 v 5.377 H 42.981 Z"
         id="path603" /></clipPath><clipPath
       clipPathUnits="userSpaceOnUse"
       id="clipPath617"><path
         d="m 42.598,159.458 h 69.74 v 5.796 h -69.74 z"
         id="path615" /></clipPath><clipPath
       clipPathUnits="userSpaceOnUse"
       id="clipPath629"><path
         d="M 43.089,152.458 H 93.97 v 5.796 H 43.089 Z"
         id="path627" /></clipPath><clipPath
       clipPathUnits="userSpaceOnUse"
       id="clipPath641"><path
         d="M 43.035,146.682 H 80.84 v 4.572 H 43.035 Z"
         id="path639" /></clipPath><clipPath
       clipPathUnits="userSpaceOnUse"
       id="clipPath653"><path
         d="m 42.58,138.914 h 58.295 v 5.376 H 42.58 Z"
         id="path651" /></clipPath><clipPath
       clipPathUnits="userSpaceOnUse"
       id="clipPath665"><path
         d="m 42.97,132.682 h 36.042 v 4.644 H 42.97 Z"
         id="path663" /></clipPath><clipPath
       clipPathUnits="userSpaceOnUse"
       id="clipPath677"><path
         d="m 42.562,125.682 h 36.821 v 4.644 H 42.562 Z"
         id="path675" /></clipPath><clipPath
       clipPathUnits="userSpaceOnUse"
       id="clipPath707"><path
         d="m 42.52,79.047 h 92.828 v 20.14 H 42.52 Z"
         id="path705" /></clipPath><clipPath
       clipPathUnits="userSpaceOnUse"
       id="clipPath815"><path
         d="m 42.981,64.207 h 88.526 v 5.377 H 42.981 Z"
         id="path813" /></clipPath><clipPath
       clipPathUnits="userSpaceOnUse"
       id="clipPath827"><path
         d="m 42.999,56.751 h 38.726 v 5.484 H 42.999 Z"
         id="path825" /></clipPath><clipPath
       clipPathUnits="userSpaceOnUse"
       id="clipPath839"><path
         d="m 42.814,50.975 h 39.838 v 4.572 H 42.814 Z"
         id="path837" /></clipPath><clipPath
       clipPathUnits="userSpaceOnUse"
       id="clipPath851"><path
         d="m 42.58,43.207 h 58.138 v 5.376 H 42.58 Z"
         id="path849" /></clipPath><clipPath
       clipPathUnits="userSpaceOnUse"
       id="clipPath863"><path
         d="M 42.97,36.976 H 74.513 V 41.62 H 42.97 Z"
         id="path861" /></clipPath><clipPath
       clipPathUnits="userSpaceOnUse"
       id="clipPath875"><path
         d="m 42.562,29.975 h 32.322 v 4.644 H 42.562 Z"
         id="path873" /></clipPath><clipPath
       clipPathUnits="userSpaceOnUse"
       id="clipPath891"><path
         d="m 216.85,146.255 h 80.788 v 56.758 H 216.85 Z"
         id="path889" /></clipPath><clipPath
       clipPathUnits="userSpaceOnUse"
       id="clipPath975"><path
         d="m 217.378,132.025 h 48.387 v 4.572 h -48.387 z"
         id="path973" /></clipPath><clipPath
       clipPathUnits="userSpaceOnUse"
       id="clipPath987"><path
         d="m 216.911,125.025 h 56.676 v 4.572 h -56.676 z"
         id="path985" /></clipPath><clipPath
       clipPathUnits="userSpaceOnUse"
       id="clipPath999"><path
         d="m 216.911,118.025 h 52.96 v 4.572 h -52.96 z"
         id="path997" /></clipPath><clipPath
       clipPathUnits="userSpaceOnUse"
       id="clipPath1011"><path
         d="m 217.181,111.026 h 29.882 v 4.302 h -29.882 z"
         id="path1009" /></clipPath><clipPath
       clipPathUnits="userSpaceOnUse"
       id="clipPath1023"><path
         d="m 216.911,103.258 h 58.467 v 5.376 h -58.467 z"
         id="path1021" /></clipPath><clipPath
       clipPathUnits="userSpaceOnUse"
       id="clipPath1035"><path
         d="m 217.3,97.025 h 33.12 v 4.572 H 217.3 Z"
         id="path1033" /></clipPath><clipPath
       clipPathUnits="userSpaceOnUse"
       id="clipPath1047"><path
         d="m 216.892,90.025 h 46.94 v 4.572 h -46.94 z"
         id="path1045" /></clipPath><clipPath
       clipPathUnits="userSpaceOnUse"
       id="clipPath1063"><path
         d="m 391.181,143.657 h 50.574 v 59.357 h -50.574 z"
         id="path1061" /></clipPath><clipPath
       clipPathUnits="userSpaceOnUse"
       id="clipPath1263"><path
         d="m 391.307,128.361 h 138.989 v 5.868 H 391.307 Z"
         id="path1261" /></clipPath><clipPath
       clipPathUnits="userSpaceOnUse"
       id="clipPath1275"><path
         d="m 532.159,128.817 h 20.297 v 5.376 h -20.297 z"
         id="path1273" /></clipPath><clipPath
       clipPathUnits="userSpaceOnUse"
       id="clipPath1287"><path
         d="m 391.529,121.361 h 56.828 v 5.868 h -56.828 z"
         id="path1285" /></clipPath><clipPath
       clipPathUnits="userSpaceOnUse"
       id="clipPath1299"><path
         d="m 391.241,115.585 h 50.738 v 4.572 h -50.738 z"
         id="path1297" /></clipPath><clipPath
       clipPathUnits="userSpaceOnUse"
       id="clipPath1311"><path
         d="m 391.457,108.585 h 44.32 v 4.572 h -44.32 z"
         id="path1309" /></clipPath><clipPath
       clipPathUnits="userSpaceOnUse"
       id="clipPath1323"><path
         d="m 391.241,100.817 h 58.416 v 5.376 h -58.416 z"
         id="path1321" /></clipPath><clipPath
       clipPathUnits="userSpaceOnUse"
       id="clipPath1335"><path
         d="m 391.631,93.361 h 69.294 v 5.796 h -69.294 z"
         id="path1333" /></clipPath><clipPath
       clipPathUnits="userSpaceOnUse"
       id="clipPath1347"><path
         d="m 391.223,86.36 h 70.436 v 5.796 h -70.436 z"
         id="path1345" /></clipPath><clipPath
       clipPathUnits="userSpaceOnUse"
       id="clipPath1359"><path
         d="m 391.181,316.697 h 80.787 v 29.579 h -80.787 z"
         id="path1357" /></clipPath><clipPath
       clipPathUnits="userSpaceOnUse"
       id="clipPath1593"><path
         d="m 391.667,301.401 h 102.327 v 5.868 H 391.667 Z"
         id="path1591" /></clipPath><clipPath
       clipPathUnits="userSpaceOnUse"
       id="clipPath1605"><path
         d="m 391.421,294.857 h 83.108 v 5.412 h -83.108 z"
         id="path1603" /></clipPath><clipPath
       clipPathUnits="userSpaceOnUse"
       id="clipPath1617"><path
         d="m 391.661,287.401 h 102.618 v 5.867 H 391.661 Z"
         id="path1615" /></clipPath><clipPath
       clipPathUnits="userSpaceOnUse"
       id="clipPath1629"><path
         d="m 391.217,281.625 h 44.22 v 4.572 h -44.22 z"
         id="path1627" /></clipPath><clipPath
       clipPathUnits="userSpaceOnUse"
       id="clipPath1641"><path
         d="m 391.511,273.857 h 43.135 v 5.376 h -43.135 z"
         id="path1639" /></clipPath><clipPath
       clipPathUnits="userSpaceOnUse"
       id="clipPath1653"><path
         d="m 391.241,266.857 h 58.79 v 5.376 h -58.79 z"
         id="path1651" /></clipPath><clipPath
       clipPathUnits="userSpaceOnUse"
       id="clipPath1665"><path
         d="m 391.631,259.437 h 35.623 v 5.76 h -35.623 z"
         id="path1663" /></clipPath><clipPath
       clipPathUnits="userSpaceOnUse"
       id="clipPath1677"><path
         d="m 391.223,252.401 h 58.062 v 5.796 h -58.062 z"
         id="path1675" /></clipPath><clipPath
       clipPathUnits="userSpaceOnUse"
       id="clipPath1689"><path
         d="m 216.85,302.022 h 83.486 v 44.243 H 216.85 Z"
         id="path1687" /></clipPath><clipPath
       clipPathUnits="userSpaceOnUse"
       id="clipPath2189"><path
         d="m 217.379,286.762 h 142.524 v 5.796 H 217.379 Z"
         id="path2187" /></clipPath><clipPath
       clipPathUnits="userSpaceOnUse"
       id="clipPath2201"><path
         d="m 217.33,279.726 h 91.431 v 5.796 H 217.33 Z"
         id="path2199" /></clipPath><clipPath
       clipPathUnits="userSpaceOnUse"
       id="clipPath2213"><path
         d="m 217.379,273.95 h 39.235 v 4.333 h -39.235 z"
         id="path2211" /></clipPath><clipPath
       clipPathUnits="userSpaceOnUse"
       id="clipPath2225"><path
         d="m 216.928,266.95 h 46.268 v 4.572 h -46.268 z"
         id="path2223" /></clipPath><clipPath
       clipPathUnits="userSpaceOnUse"
       id="clipPath2237"><path
         d="m 217.193,259.951 h 49.179 v 4.332 h -49.179 z"
         id="path2235" /></clipPath><clipPath
       clipPathUnits="userSpaceOnUse"
       id="clipPath2249"><path
         d="m 216.911,252.183 h 58.878 v 5.376 h -58.878 z"
         id="path2247" /></clipPath><clipPath
       clipPathUnits="userSpaceOnUse"
       id="clipPath2261"><path
         d="m 217.3,245.95 h 46.855 v 4.572 H 217.3 Z"
         id="path2259" /></clipPath><clipPath
       clipPathUnits="userSpaceOnUse"
       id="clipPath2273"><path
         d="m 216.892,238.95 h 40.541 v 4.572 h -40.541 z"
         id="path2271" /></clipPath><clipPath
       clipPathUnits="userSpaceOnUse"
       id="clipPath2285"><path
         d="m 43.006,355.833 h 80.161 v 5.832 H 43.006 Z"
         id="path2283" /></clipPath><clipPath
       clipPathUnits="userSpaceOnUse"
       id="clipPath2297"><path
         d="m 391.181,30.165 h 126.85 v 14.693 h -126.85 z"
         id="path2295" /></clipPath><clipPath
       clipPathUnits="userSpaceOnUse"
       id="clipPath2365"><path
         d="m 391.259,50.669 h 102.794 v 5.796 H 391.259 Z"
         id="path2363" /></clipPath></defs><sodipodi:namedview
     id="namedview11"
     pagecolor="#ffffff"
     bordercolor="#666666"
     borderopacity="1.0"
     inkscape:pageshadow="2"
     inkscape:pageopacity="0.0"
     inkscape:pagecheckerboard="0"
     showgrid="false"
     fit-margin-top="0"
     fit-margin-left="0"
     fit-margin-right="0"
     fit-margin-bottom="0"
     lock-margins="true"
     inkscape:zoom="1.3550943"
     inkscape:cx="121.39377"
     inkscape:cy="115.12114"
     inkscape:window-width="1312"
     inkscape:window-height="942"
     inkscape:window-x="0"
     inkscape:window-y="177"
     inkscape:window-maximized="0"
     inkscape:current-layer="g15" /><g
     id="g15"
     inkscape:groupmode="layer"
     inkscape:label="mse-broschuere"
     transform="matrix(1.3333333,0,0,-1.3333333,-56.693332,519.41465)"><g
       id="g17"
       transform="translate(147.0177,389.5101)"><path
         d="M 0,0 -1.319,-4.095 H -1.336 L -2.625,0 h -1.003 v -5.149 h 0.62 v 4.44 h 0.014 l 1.402,-4.44 h 0.471 l 1.46,4.44 h 0.015 v -4.44 H 0.973 V 0 Z"
         style="fill:#646262;fill-opacity:1;fill-rule:nonzero;stroke:none"
         id="path19" /></g><g
       id="g21"
       transform="translate(150.4854,389.5101)"><path
         d="m 0,0 -1.727,-5.149 h 0.651 l 0.412,1.342 H 1.298 L 1.712,-5.149 H 2.39 L 0.708,0 Z m 0.324,-0.68 h 0.015 l 0.789,-2.565 h -1.617 z"
         style="fill:#646262;fill-opacity:1;fill-rule:nonzero;stroke:none"
         id="path23" /></g><g
       id="g25"><g
         id="g27"
         clip-path="url(#clipPath31)"><g
           id="g33"
           transform="translate(154.8448,389.5611)"><path
             d="m 0,0 v 0 c -0.782,0 -1.431,-0.442 -1.431,-1.291 0,-0.664 0.206,-0.981 1.137,-1.542 0.692,-0.42 0.796,-0.648 0.796,-1.046 0,-0.422 -0.332,-0.813 -0.915,-0.813 -0.303,0 -0.686,0.155 -0.981,0.332 v -0.671 c 0.273,-0.132 0.664,-0.221 1.078,-0.221 0.987,0 1.496,0.641 1.496,1.461 0,0.59 -0.264,1.04 -1.062,1.497 -0.737,0.428 -0.871,0.634 -0.871,0.966 0,0.436 0.319,0.768 0.805,0.768 0.317,0 0.635,-0.089 0.877,-0.236 V -0.17 C 0.701,-0.074 0.339,0 0,0"
             style="fill:#646262;fill-opacity:1;fill-rule:nonzero;stroke:none"
             id="path35" /></g><g
           id="g37"
           transform="translate(159.6476,389.5098)"><path
             d="m 0,0 h -3.009 v -0.56 h 1.179 v -4.589 h 0.65 V -0.56 H 0 Z"
             style="fill:#646262;fill-opacity:1;fill-rule:nonzero;stroke:none"
             id="path39" /></g><g
           id="g41"
           transform="translate(162.8934,389.5098)"><path
             d="m 0,0 h -2.398 v -5.149 h 2.493 v 0.56 h -1.843 v 1.83 h 1.666 v 0.56 H -1.748 V -0.56 H 0 Z"
             style="fill:#646262;fill-opacity:1;fill-rule:nonzero;stroke:none"
             id="path43" /></g><g
           id="g45"
           transform="translate(165.3797,389.5098)"><path
             d="m 0,0 h -1.322 v -5.149 h 0.651 v 2.331 h 0.294 c 0.488,0 0.673,-0.163 0.819,-0.59 L 1.033,-5.149 H 1.732 L 1.011,-3.083 C 0.907,-2.789 0.76,-2.641 0.45,-2.582 v 0.015 c 0.76,0.162 1.018,0.685 1.018,1.231 0,0.377 -0.118,0.731 -0.385,0.983 C 0.848,-0.133 0.547,0 0,0 m -0.671,-2.287 v 1.756 h 0.517 c 0.568,0 0.943,-0.273 0.943,-0.849 0,-0.449 -0.265,-0.907 -0.96,-0.907 h -0.5"
             style="fill:#646262;fill-opacity:1;fill-rule:nonzero;stroke:none"
             id="path47" /></g><g
           id="g49"
           transform="translate(171.6724,389.5611)"><path
             d="m 0,0 v 0 c -1.217,0 -1.933,-0.9 -1.933,-2.678 0,-1.593 0.73,-2.574 1.874,-2.574 1.216,0 1.931,0.899 1.931,2.678 C 1.872,-0.981 1.143,0 0,0 m -0.059,-4.721 c -0.872,0 -1.196,1.003 -1.196,2.043 0,1.586 0.577,2.146 1.255,2.146 0.87,0 1.194,-1.002 1.194,-2.042 0,-1.586 -0.575,-2.147 -1.253,-2.147"
             style="fill:#646262;fill-opacity:1;fill-rule:nonzero;stroke:none"
             id="path51" /></g><g
           id="g53"
           transform="translate(176.9096,389.5098)"><path
             d="m 0,0 h -2.301 v -5.149 h 0.649 v 2.39 h 1.571 v 0.56 H -1.652 V -0.56 H 0 Z"
             style="fill:#646262;fill-opacity:1;fill-rule:nonzero;stroke:none"
             id="path55" /></g><g
           id="g57"
           transform="translate(181.0114,389.5611)"><path
             d="m 0,0 v 0 c -0.782,0 -1.432,-0.442 -1.432,-1.291 0,-0.664 0.207,-0.981 1.136,-1.542 0.696,-0.42 0.797,-0.648 0.797,-1.046 0,-0.422 -0.333,-0.813 -0.915,-0.813 -0.3,0 -0.686,0.155 -0.981,0.332 v -0.671 c 0.274,-0.132 0.664,-0.221 1.077,-0.221 0.99,0 1.498,0.641 1.498,1.461 0,0.59 -0.266,1.04 -1.062,1.497 -0.737,0.428 -0.871,0.634 -0.871,0.966 0,0.436 0.319,0.768 0.805,0.768 0.317,0 0.634,-0.089 0.877,-0.236 V -0.17 C 0.701,-0.074 0.341,0 0,0"
             style="fill:#646262;fill-opacity:1;fill-rule:nonzero;stroke:none"
             id="path59" /></g><g
           id="g61"
           transform="translate(185.3044,389.5611)"><path
             d="m 0,0 v 0 c -1.343,0 -2.279,-1.01 -2.279,-2.618 0,-1.395 0.687,-2.634 2.315,-2.634 0.303,0 0.628,0.06 0.938,0.156 v 0.647 c -0.266,-0.154 -0.59,-0.243 -0.922,-0.243 -1.121,0 -1.653,0.878 -1.653,2.206 0,1.254 0.767,1.926 1.608,1.926 0.362,0 0.687,-0.081 0.967,-0.259 v 0.635 C 0.737,-0.066 0.369,0 0,0"
             style="fill:#646262;fill-opacity:1;fill-rule:nonzero;stroke:none"
             id="path63" /></g><path
           d="m 187.998,389.51 h -0.649 v -5.149 h 0.649 z"
           style="fill:#646262;fill-opacity:1;fill-rule:nonzero;stroke:none"
           id="path65" /><g
           id="g67"
           transform="translate(191.6784,389.5098)"><path
             d="m 0,0 h -2.398 v -5.149 h 2.493 v 0.56 h -1.843 v 1.83 h 1.667 v 0.56 H -1.748 V -0.56 H 0 Z"
             style="fill:#646262;fill-opacity:1;fill-rule:nonzero;stroke:none"
             id="path69" /></g><g
           id="g71"
           transform="translate(196.216,389.5098)"><path
             d="M 0,0 H -0.62 V -4.249 H -0.635 L -2.576,0 h -0.803 v -5.149 h 0.619 v 4.219 h 0.016 l 1.94,-4.219 H 0 Z"
             style="fill:#646262;fill-opacity:1;fill-rule:nonzero;stroke:none"
             id="path73" /></g><g
           id="g75"
           transform="translate(199.557,389.5611)"><path
             d="m 0,0 v 0 c -1.343,0 -2.28,-1.01 -2.28,-2.618 0,-1.395 0.687,-2.634 2.318,-2.634 0.301,0 0.626,0.06 0.936,0.156 v 0.647 c -0.266,-0.154 -0.59,-0.243 -0.922,-0.243 -1.121,0 -1.654,0.878 -1.654,2.206 0,1.254 0.768,1.926 1.609,1.926 0.362,0 0.687,-0.081 0.967,-0.259 v 0.635 C 0.737,-0.066 0.369,0 0,0"
             style="fill:#646262;fill-opacity:1;fill-rule:nonzero;stroke:none"
             id="path77" /></g><g
           id="g79"
           transform="translate(203.9978,389.5098)"><path
             d="m 0,0 h -2.396 v -5.149 h 2.493 v 0.56 h -1.844 v 1.83 h 1.667 v 0.56 H -1.747 V -0.56 H 0 Z"
             style="fill:#646262;fill-opacity:1;fill-rule:nonzero;stroke:none"
             id="path81" /></g><path
           d="m 144.039,380.211 h -0.649 v -5.147 h 0.649 z"
           style="fill:#646262;fill-opacity:1;fill-rule:nonzero;stroke:none"
           id="path83" /><g
           id="g85"
           transform="translate(148.7006,380.2112)"><path
             d="M 0,0 H -0.621 V -4.249 H -0.635 L -2.576,0 h -0.803 v -5.149 h 0.619 v 4.22 h 0.014 l 1.941,-4.22 H 0 Z"
             style="fill:#646262;fill-opacity:1;fill-rule:nonzero;stroke:none"
             id="path87" /></g><g
           id="g89"
           transform="translate(154.2996,380.2112)"><path
             d="m 0,0 h -2.399 v -5.149 h 2.494 v 0.56 h -1.844 v 1.831 h 1.666 v 0.561 H -1.749 V -0.56 H 0 Z"
             style="fill:#646262;fill-opacity:1;fill-rule:nonzero;stroke:none"
             id="path91" /></g><g
           id="g93"
           transform="translate(158.9163,380.2112)"><path
             d="M 0,0 H -0.619 V -4.249 H -0.634 L -2.574,0 h -0.805 v -5.149 h 0.62 v 4.22 h 0.016 l 1.939,-4.22 H 0 Z"
             style="fill:#646262;fill-opacity:1;fill-rule:nonzero;stroke:none"
             id="path95" /></g><g
           id="g97"
           transform="translate(162.3326,380.2632)"><path
             d="m 0,0 c -1.342,0 -2.279,-1.01 -2.279,-2.619 0,-1.393 0.686,-2.634 2.316,-2.634 0.456,0 0.974,0.156 1.276,0.267 v 2.619 h -1.482 v -0.562 h 0.863 v -1.623 c -0.17,-0.089 -0.436,-0.14 -0.642,-0.14 -1.123,0 -1.653,0.879 -1.653,2.206 0,1.254 0.767,1.925 1.608,1.925 0.376,0 0.812,-0.117 1.203,-0.316 v 0.648 C 0.857,-0.059 0.444,0 0,0"
             style="fill:#646262;fill-opacity:1;fill-rule:nonzero;stroke:none"
             id="path99" /></g><path
           d="m 165.652,380.211 h -0.649 v -5.147 h 0.649 z"
           style="fill:#646262;fill-opacity:1;fill-rule:nonzero;stroke:none"
           id="path101" /><g
           id="g103"
           transform="translate(170.3885,380.2112)"><path
             d="M 0,0 H -0.619 V -4.249 H -0.635 L -2.575,0 h -0.804 v -5.149 h 0.621 v 4.22 h 0.014 l 1.94,-4.22 H 0 Z"
             style="fill:#646262;fill-opacity:1;fill-rule:nonzero;stroke:none"
             id="path105" /></g><g
           id="g107"
           transform="translate(174.1366,380.2112)"><path
             d="m 0,0 h -2.398 v -5.149 h 2.493 v 0.56 h -1.843 v 1.831 h 1.666 v 0.561 H -1.748 V -0.56 H 0 Z"
             style="fill:#646262;fill-opacity:1;fill-rule:nonzero;stroke:none"
             id="path109" /></g><g
           id="g111"
           transform="translate(177.7737,380.2112)"><path
             d="m 0,0 h -2.398 v -5.149 h 2.493 v 0.56 h -1.843 v 1.831 h 1.666 v 0.561 H -1.748 V -0.56 H 0 Z"
             style="fill:#646262;fill-opacity:1;fill-rule:nonzero;stroke:none"
             id="path113" /></g><g
           id="g115"
           transform="translate(180.3244,380.2112)"><path
             d="m 0,0 h -1.319 v -5.149 h 0.648 v 2.331 h 0.296 c 0.486,0 0.671,-0.161 0.818,-0.59 l 0.59,-1.741 H 1.734 L 1.011,-3.083 C 0.909,-2.787 0.76,-2.64 0.451,-2.582 v 0.015 c 0.76,0.162 1.017,0.686 1.017,1.233 0,0.376 -0.118,0.73 -0.381,0.981 C 0.849,-0.133 0.547,0 0,0 m -0.671,-2.287 v 1.756 h 0.517 c 0.568,0 0.944,-0.273 0.944,-0.848 0,-0.449 -0.265,-0.908 -0.958,-0.908 h -0.503"
             style="fill:#646262;fill-opacity:1;fill-rule:nonzero;stroke:none"
             id="path117" /></g><path
           d="m 183.703,380.211 h -0.649 v -5.147 h 0.649 z"
           style="fill:#646262;fill-opacity:1;fill-rule:nonzero;stroke:none"
           id="path119" /><g
           id="g121"
           transform="translate(188.4408,380.2112)"><path
             d="M 0,0 H -0.62 V -4.249 H -0.635 L -2.575,0 h -0.804 v -5.149 h 0.619 v 4.22 h 0.015 l 1.941,-4.22 H 0 Z"
             style="fill:#646262;fill-opacity:1;fill-rule:nonzero;stroke:none"
             id="path123" /></g><g
           id="g125"
           transform="translate(191.8631,380.2632)"><path
             d="m 0,0 c -1.341,0 -2.28,-1.01 -2.28,-2.619 0,-1.393 0.687,-2.634 2.318,-2.634 0.455,0 0.973,0.156 1.275,0.267 v 2.619 H -0.17 v -0.562 h 0.864 v -1.623 c -0.17,-0.089 -0.435,-0.14 -0.642,-0.14 -1.121,0 -1.653,0.879 -1.653,2.206 0,1.254 0.767,1.925 1.608,1.925 0.377,0 0.813,-0.117 1.204,-0.316 v 0.648 C 0.855,-0.059 0.443,0 0,0"
             style="fill:#646262;fill-opacity:1;fill-rule:nonzero;stroke:none"
             id="path127" /></g><g
           id="g129"
           transform="translate(136.0909,389.5156)"><path
             d="M 0,0 V -14.452 Z"
             style="fill:#646262;fill-opacity:1;fill-rule:nonzero;stroke:none"
             id="path131" /></g><g
           id="g133"
           transform="translate(136.2755,389.5156)"><path
             d="M 0,0 V -14.452 H -0.369 V 0"
             style="fill:#646262;fill-opacity:1;fill-rule:nonzero;stroke:none"
             id="path135" /></g><g
           id="g137"
           transform="translate(65.9463,389.5134)"><path
             d="M 0,0 H -5.311 L -11.614,-9.976 -18.315,0 h -5.112 v -14.443 h 3.775 l -0.002,10.621 6.75,-10.621 h 2.481 l 6.701,10.621 V -14.443 H 0 v 3.599 z"
             style="fill:#646262;fill-opacity:1;fill-rule:nonzero;stroke:none"
             id="path139" /></g><g
           id="g141"
           transform="translate(92.0287,389.5134)"><path
             d="m 0,0 h -18.737 c -1.307,0 -2.415,-0.351 -3.325,-1.054 -0.91,-0.703 -1.365,-1.551 -1.365,-2.545 v -0.966 -0.994 c 0.033,-1.126 0.463,-1.969 1.29,-2.531 0.827,-0.563 1.953,-0.862 3.376,-0.895 h 14.89 v -1.636 h -19.556 v -3.822 h 18.712 c 1.356,0 2.481,0.318 3.374,0.956 0.894,0.637 1.341,1.592 1.341,2.866 v 1.636 c 0,1.26 -0.394,2.144 -1.179,2.656 -0.787,0.514 -1.965,0.77 -3.536,0.77 h -14.989 v 1.737 L 0,-3.822 V 0"
             style="fill:#646262;fill-opacity:1;fill-rule:nonzero;stroke:none"
             id="path143" /></g><g
           id="g145"
           transform="translate(118.1094,384.0543)"><path
             d="m 0,0 h -23.425 v -5.385 c 0,-0.993 0.453,-1.841 1.363,-2.544 0.911,-0.704 2.019,-1.054 3.327,-1.054 H -4.689 0 v 3.921 h -3.274 -3.525 -9.777 -3.128 v 1.636 L 0,-3.426 V 0"
             style="fill:#646262;fill-opacity:1;fill-rule:nonzero;stroke:none"
             id="path147" /></g><g
           id="g149"
           transform="translate(94.6944,385.7011)"><path
             d="M 0,0 V 0.224 C 0,1.215 0.454,2.063 1.364,2.766 2.274,3.47 3.383,3.822 4.69,3.822 H 23.426 V 0 H 6.875 5.559 Z"
             style="fill:#e5323d;fill-opacity:1;fill-rule:nonzero;stroke:none"
             id="path151" /></g></g></g></g></svg>
