<?xml version="1.0" encoding="utf-8"?>
<!-- Generator: Adobe Illustrator 26.3.1, SVG Export Plug-In . SVG Version: 6.00 Build 0)  -->
<svg version="1.1" id="Hes" xmlns="http://www.w3.org/2000/svg" xmlns:xlink="http://www.w3.org/1999/xlink" x="0px" y="0px"
	 viewBox="0 0 185.3 62" style="enable-background:new 0 0 185.3 62;" xml:space="preserve">
<style type="text/css">
	.st0{fill:#B5AEA6;}
	.st1{fill:#0077B4;}
</style>
<g>
	<path class="st0" d="M137.3,32.9c2.1,0.6,6.9,2.2,6.9,7.4c0,2-0.8,4.2-2.9,5.9c-2.8,2.2-6.5,2.4-8.4,2.4c-2.8,0-5.2-0.5-7.2-1.2
		c-0.3-0.1-0.5-0.2-0.8-0.3l-0.3-0.4c0.2-1.9,0.2-2.2,0.3-4.2l0.5-0.1c0.9,0.7,3.3,2.4,7.3,2.4c4.2,0,5.7-2.2,5.7-3.7
		c0-2.3-2.3-3-5.5-4l-1.7-0.5c-2.2-0.6-6.9-2.1-6.9-7.2c0-5.1,4.7-7.6,10.6-7.6c3.9,0,6.6,1,7.6,1.4l0.3,0.3c-0.2,1.8-0.3,2-0.4,3.9
		l-0.5,0.2c-1.3-0.8-3.4-2-6.8-2c-0.7,0-1.5,0-2.3,0.2c-1.6,0.4-2.9,1.4-2.9,3c0,2.1,2.2,2.8,5.4,3.7L137.3,32.9z"/>
	<path class="st0" d="M168.9,34.9c0.1,1,0,4.4-1.2,6.6c-1.5,2.7-4.1,3.3-6,3.3c-1.1,0-2.2-0.2-3.1-0.6c-4.2-2-4.2-7-4.2-9
		c0-2.1,0.2-5,1.6-7c1.8-2.8,4.8-2.9,5.8-2.9c2.9,0,4.6,1.3,5.6,2.8C168.7,30.3,168.9,33.7,168.9,34.9z M174.7,34.7
		c-0.1-3.5-0.8-6.9-3.2-9.6c-2.3-2.5-5.8-3.6-9.4-3.6c-5.3,0-8.3,2-9.8,3.5c-3.5,3.3-3.6,8.2-3.6,10.1c0,1.6,0.1,6.7,3.6,10.1
		c1.7,1.6,4.7,3.3,9.4,3.3c3.7,0,6.8-0.8,9.1-3c1.7-1.6,2.8-3.6,3.4-6C174.6,38,174.7,36.4,174.7,34.7z"/>
	<path class="st0" d="M118.3,35.1c0,1.7-1.4,3.1-3.1,3.1c-1.7,0-3.1-1.4-3.1-3.1c0-1.7,1.4-3.1,3.1-3.1
		C116.9,32,118.3,33.4,118.3,35.1z"/>
</g>
<g>
	<path class="st1" d="M46.1,13.3c-0.1,3.8-0.1,6.2-0.1,9.6c0,8.3,0.2,16.6,0.6,25l-0.3,0.3c-4.5,0-5.5,0-9.5,0.1L36.6,48
		c0.3-7,0.3-8.6,0.2-15.3c-2.1,0-4.2-0.1-6.3-0.1c-2.1,0-4,0-6.3,0.1c0.1,7.2,0.1,9,0.4,15.1l-0.3,0.3c-4.6,0-5.6,0-9.4,0.1L14.6,48
		c0.1-4.2,0.2-6.6,0.2-11.1c0-12.3-0.3-18.4-0.6-23.5l0.3-0.3c4.6,0,5.4,0,9.4-0.1l0.3,0.3l-0.1,13.1c1.8,0,3.7,0,5.6,0
		c2.4,0,4.7,0,7-0.1c-0.1-5.9-0.1-7.3-0.4-12.9l0.3-0.3c4.4,0,5.1,0,9.3-0.1L46.1,13.3z"/>
	<path class="st1" d="M60.7,31.9c0.2-1.5,0.5-3.6,2.5-4.8c0.6-0.4,1.4-0.5,2.1-0.5c1.7,0,2.8,0.8,3.4,1.7c0.7,1.1,0.8,2.3,0.8,3.4
		L60.7,31.9z M76.7,40.8c-2,1-4.4,2.1-8.2,2.1c-3.2,0-5.3-0.9-6.6-2.7c-0.8-1-0.9-2-1.2-3l17-0.3l0.3-0.3c-0.1-2.4-0.1-4.9-0.8-7.4
		c-1.8-5.9-5.9-7-7.7-7.4c-1.3-0.3-2.5-0.4-3.7-0.4C57.5,21.3,52,26.4,52,35c0,2.3,0.4,4.8,1.3,6.5c3.1,6.7,10.2,7.3,14,7.3
		c4.4,0,6.3-0.7,9.1-1.8l0.3-0.4L77,41L76.7,40.8z"/>
	<path class="st1" d="M98.9,31.9c2.9,1,7,2.5,7,7.9c0,0.3,0,0.7-0.1,1.1c-0.9,7.1-8.8,7.8-12.9,7.8c-3.8,0-6.1-0.8-8.6-1.7L84,46.6
		c0.2-2.5,0.3-3,0.4-5.6l0.5-0.2c0.8,0.6,1.2,0.9,2.1,1.4c1.9,0.9,4.1,1.4,5.6,1.4c2.9,0,4.2-1.3,4.2-2.6c0-1.8-2.3-2.5-3.7-3
		l-2-0.7c-2.5-0.9-6.8-2.5-6.8-7.8c0-2,0.7-3.5,1.4-4.4c2.7-3.7,7.9-3.9,10.5-3.9c3.4,0,5.6,0.6,8.1,1.2l0.3,0.3l-0.5,5.4l-0.5,0.1
		c-1.3-0.8-3.4-2.1-6.6-2.1c-3.3,0-3.7,1.6-3.7,2.2c0,1.4,1.4,1.9,3.2,2.5L98.9,31.9z"/>
</g>
</svg>
