<?xml version="1.0" encoding="utf-8"?>
<!-- Generator: Adobe Illustrator 26.3.1, SVG Export Plug-In . SVG Version: 6.00 Build 0)  -->
<svg version="1.1" id="Calque_1" xmlns="http://www.w3.org/2000/svg" xmlns:xlink="http://www.w3.org/1999/xlink" x="0px" y="0px"
	 viewBox="0 0 116.2 17.3" style="enable-background:new 0 0 116.2 17.3;" xml:space="preserve">
<style type="text/css">
	.st0{fill:#B5AEA3;}
	.st1{fill:#0076B3;}
</style>
<g>
	<path class="st0" d="M67.4,1.9c0,0.1-5.7,12-5.7,12c-0.3,0.6-0.4,0.9-0.4,1.5c0,1.1,0.8,2,1.9,2c1.2,0,1.7-1,2.1-1.7l5.9-12.4
		c0.2-0.3,0.3-0.7,0.3-1.3c0-1.1-0.8-1.9-1.9-1.9C68.3,0,67.8,1.1,67.4,1.9 M61.9,15.3c0-0.4,0.1-0.6,0.4-1.1c0,0,5.6-12,5.6-12
		c0.4-0.8,0.8-1.6,1.6-1.6c0.7,0,1.3,0.5,1.3,1.3c0,0.4-0.1,0.7-0.3,1c0,0-5.8,12.4-5.9,12.4c-0.3,0.6-0.7,1.3-1.5,1.3l0,0
		C62.5,16.6,61.9,16.1,61.9,15.3L61.9,15.3z"/>
	<path class="st0" d="M72.7,1.9c0,0.1-5.6,12-5.6,12c-0.3,0.6-0.4,0.9-0.4,1.5c0,1.1,0.8,2,1.9,2c1.2,0,1.7-1,2.1-1.7l5.9-12.4
		c0.2-0.3,0.3-0.7,0.3-1.3C76.8,0.8,76,0,74.9,0C73.7,0,73.1,1.1,72.7,1.9 M67.3,15.3c0-0.4,0.1-0.6,0.4-1.1c0,0,5.6-12,5.6-12
		c0.4-0.8,0.8-1.6,1.6-1.6c0.7,0,1.3,0.5,1.3,1.3c0,0.4-0.1,0.7-0.3,1c0,0-5.9,12.4-5.9,12.4c-0.3,0.6-0.7,1.3-1.5,1.3
		C67.9,16.6,67.3,16.1,67.3,15.3L67.3,15.3z"/>
	<path class="st0" d="M78.4,2.9c0-0.4,0.2-0.7,0.7-0.7h2.2c0.4,0,0.6,0.3,0.6,0.6c0,0.3-0.2,0.6-0.6,0.6h-1.6v1.2H81
		c0.4,0,0.6,0.3,0.6,0.6c0,0.3-0.2,0.6-0.6,0.6h-1.3v1.9c0,0.4-0.3,0.7-0.6,0.7c-0.4,0-0.6-0.2-0.6-0.7V2.9L78.4,2.9z"/>
	<path class="st0" d="M82.2,2.9c0-0.4,0.2-0.7,0.7-0.7h1.5c1.3,0,2.1,0.6,2.1,1.9c0,0.9-0.7,1.5-1.6,1.6l1.5,1.6
		c0.1,0.1,0.2,0.3,0.2,0.4c0,0.3-0.3,0.7-0.6,0.7c-0.2,0-0.4-0.1-0.5-0.2l-1.9-2.3h0v1.9c0,0.4-0.3,0.7-0.6,0.7
		c-0.4,0-0.6-0.2-0.6-0.7V2.9 M83.5,4.9h0.9c0.5,0,0.8-0.3,0.8-0.8c0-0.5-0.3-0.8-0.8-0.8h-0.9V4.9L83.5,4.9z"/>
	<path class="st0" d="M87,2.8c0-0.4,0.3-0.7,0.6-0.7c0.4,0,0.6,0.2,0.6,0.7v4.9c0,0.4-0.3,0.7-0.6,0.7c-0.4,0-0.6-0.2-0.6-0.7V2.8
		L87,2.8z"/>
	<path class="st0" d="M89,2.8c0-0.4,0.3-0.6,0.7-0.6h1.6c0.9,0,1.6,0.6,1.6,1.5c0,0.6-0.2,1-0.8,1.3v0c0.7,0.1,1.3,0.7,1.3,1.5
		c0,1.2-0.8,1.9-2,1.9h-1.8C89.3,8.3,89,8,89,7.6V2.8 M90.3,4.6H91c0.4,0,0.7-0.2,0.7-0.7c0-0.4-0.3-0.6-0.7-0.6h-0.7V4.6 M90.3,7.1
		h1c0.5,0,0.8-0.3,0.8-0.7c0-0.4-0.3-0.7-0.9-0.7h-0.9V7.1L90.3,7.1z"/>
	<path class="st0" d="M93.6,5.2c0-1.8,1.2-3.1,2.9-3.1c1.7,0,2.9,1.4,2.9,3.1c0,1.8-1.2,3.1-2.9,3.1C94.8,8.4,93.6,7,93.6,5.2
		 M98.2,5.2c0-1-0.5-2-1.6-2c-1.1,0-1.6,0.9-1.6,2c0,1,0.5,2,1.6,2C97.7,7.2,98.2,6.3,98.2,5.2L98.2,5.2z"/>
	<path class="st0" d="M100,2.8c0-0.4,0.3-0.7,0.6-0.7c0.4,0,0.6,0.2,0.6,0.7v3c0,0.8,0.5,1.4,1.3,1.4c0.8,0,1.3-0.7,1.3-1.4v-3
		c0-0.4,0.3-0.7,0.6-0.7c0.4,0,0.6,0.2,0.6,0.7v3.1c0,1.4-1.2,2.5-2.6,2.5c-1.4,0-2.6-1.1-2.6-2.5V2.8L100,2.8z"/>
	<path class="st0" d="M105.9,2.9c0-0.4,0.2-0.7,0.7-0.7h1.5c1.3,0,2.1,0.6,2.1,1.9c0,0.9-0.7,1.5-1.6,1.6l1.5,1.6
		c0.1,0.1,0.2,0.3,0.2,0.4c0,0.3-0.3,0.7-0.6,0.7c-0.2,0-0.4-0.1-0.5-0.2l-1.9-2.3h0v1.9c0,0.4-0.3,0.7-0.6,0.7
		c-0.4,0-0.6-0.2-0.6-0.7V2.9 M107.2,4.9h0.9c0.5,0,0.8-0.3,0.8-0.8c0-0.5-0.3-0.8-0.8-0.8h-0.9V4.9L107.2,4.9z"/>
	<path class="st0" d="M115.4,4.7c0.5,0,0.8,0.3,0.8,0.8c0,1.7-1.1,2.9-2.8,2.9c-1.7,0-2.9-1.4-2.9-3.1c0-1.8,1.2-3.1,2.9-3.1
		c1.3,0,2.4,0.6,2.4,1.2c0,0.4-0.2,0.6-0.5,0.6c-0.6,0-0.7-0.6-1.8-0.6c-1.1,0-1.6,0.9-1.6,2c0,1,0.5,2,1.6,2c0.7,0,1.5-0.4,1.5-1.4
		H114c-0.4,0-0.6-0.2-0.6-0.6c0-0.4,0.3-0.6,0.6-0.6H115.4L115.4,4.7z"/>
	<path class="st0" d="M78.4,10.3c0-0.4,0.2-0.7,0.7-0.7h2.2c0.4,0,0.6,0.3,0.6,0.6c0,0.3-0.2,0.6-0.6,0.6h-1.6V12H81
		c0.4,0,0.6,0.3,0.6,0.6c0,0.3-0.2,0.6-0.6,0.6h-1.3v1.9c0,0.4-0.3,0.7-0.6,0.7c-0.4,0-0.6-0.2-0.6-0.7V10.3L78.4,10.3z"/>
	<path class="st0" d="M82.2,10.3c0-0.4,0.2-0.7,0.7-0.7h1.5c1.3,0,2.1,0.6,2.1,1.9c0,0.9-0.7,1.5-1.6,1.6l1.5,1.6
		c0.1,0.1,0.2,0.3,0.2,0.4c0,0.3-0.3,0.7-0.6,0.7c-0.2,0-0.4-0.1-0.5-0.2l-1.9-2.3h0v1.9c0,0.4-0.3,0.7-0.6,0.7
		c-0.4,0-0.6-0.2-0.6-0.7V10.3 M83.5,12.3h0.9c0.5,0,0.8-0.3,0.8-0.8c0-0.5-0.3-0.8-0.8-0.8h-0.9V12.3L83.5,12.3z"/>
	<path class="st0" d="M87,10.4c0-0.4,0.2-0.7,0.7-0.7h2.1c0.4,0,0.6,0.3,0.6,0.6c0,0.3-0.2,0.6-0.6,0.6h-1.5V12h1.4
		c0.4,0,0.6,0.3,0.6,0.6c0,0.3-0.2,0.6-0.6,0.6h-1.4v1.3h1.6c0.4,0,0.6,0.3,0.6,0.6c0,0.3-0.2,0.6-0.6,0.6h-2.2
		c-0.4,0-0.7-0.3-0.7-0.6V10.4L87,10.4z"/>
	<path class="st0" d="M90.9,10.2c0-0.4,0.3-0.7,0.6-0.7c0.4,0,0.6,0.2,0.6,0.7v4.9c0,0.4-0.3,0.7-0.6,0.7c-0.4,0-0.6-0.2-0.6-0.7
		V10.2L90.9,10.2z"/>
	<path class="st0" d="M92.9,10.2c0-0.4,0.3-0.6,0.7-0.6h1.6c0.9,0,1.6,0.6,1.6,1.5c0,0.6-0.2,1-0.8,1.3v0c0.7,0.1,1.3,0.7,1.3,1.5
		c0,1.2-0.8,1.9-2,1.9h-1.8c-0.4,0-0.7-0.2-0.7-0.6V10.2 M94.2,12h0.7c0.4,0,0.7-0.2,0.7-0.7c0-0.4-0.3-0.6-0.7-0.6h-0.7V12
		 M94.2,14.6h1c0.5,0,0.8-0.3,0.8-0.7c0-0.4-0.3-0.7-0.9-0.7h-0.9V14.6L94.2,14.6z"/>
	<path class="st0" d="M97.8,10.2c0-0.4,0.3-0.7,0.6-0.7c0.4,0,0.6,0.2,0.6,0.7v3c0,0.8,0.5,1.4,1.3,1.4c0.8,0,1.3-0.7,1.3-1.4v-3
		c0-0.4,0.3-0.7,0.6-0.7c0.4,0,0.6,0.2,0.6,0.7v3.1c0,1.4-1.2,2.5-2.6,2.5c-1.4,0-2.6-1.1-2.6-2.5V10.2L97.8,10.2z"/>
	<path class="st0" d="M103.6,10.3c0-0.4,0.2-0.7,0.7-0.7h1.5c1.3,0,2.1,0.6,2.1,1.9c0,0.9-0.7,1.5-1.6,1.6l1.5,1.6
		c0.1,0.1,0.2,0.3,0.2,0.4c0,0.3-0.3,0.7-0.6,0.7c-0.2,0-0.4-0.1-0.5-0.2l-1.9-2.3h0v1.9c0,0.4-0.3,0.7-0.6,0.7
		c-0.4,0-0.6-0.2-0.6-0.7V10.3 M104.9,12.3h0.9c0.5,0,0.8-0.3,0.8-0.8c0-0.5-0.3-0.8-0.8-0.8h-0.9V12.3L104.9,12.3z"/>
	<path class="st0" d="M113.2,12.1c0.5,0,0.8,0.3,0.8,0.8c0,1.7-1.1,2.9-2.8,2.9c-1.7,0-2.9-1.4-2.9-3.1c0-1.8,1.2-3.1,2.9-3.1
		c1.3,0,2.4,0.6,2.4,1.2c0,0.4-0.2,0.6-0.5,0.6c-0.6,0-0.7-0.6-1.8-0.6c-1.1,0-1.6,0.9-1.6,2c0,1,0.5,2,1.6,2c0.7,0,1.5-0.4,1.5-1.4
		h-0.9c-0.3,0-0.6-0.2-0.6-0.6c0-0.4,0.3-0.6,0.6-0.6H113.2L113.2,12.1z"/>
	<g>
		<path class="st0" d="M45.9,9.5c0.8,0.2,2.6,0.8,2.6,2.8c0,0.7-0.3,1.6-1.1,2.2c-1,0.8-2.4,0.9-3.1,0.9c-1.1,0-1.9-0.2-2.7-0.5
			c-0.1,0-0.2-0.1-0.3-0.1l-0.1-0.2c0.1-0.7,0.1-0.8,0.1-1.6l0.2-0.1c0.4,0.3,1.2,0.9,2.7,0.9c1.6,0,2.1-0.8,2.1-1.4
			c0-0.9-0.8-1.1-2-1.5l-0.6-0.2c-0.8-0.2-2.6-0.8-2.6-2.7c0-1.9,1.8-2.8,4-2.8c1.5,0,2.5,0.4,2.8,0.5l0.1,0.1
			c-0.1,0.7-0.1,0.8-0.2,1.5l-0.2,0.1c-0.5-0.3-1.3-0.7-2.5-0.7c-0.3,0-0.5,0-0.8,0.1c-0.6,0.1-1.1,0.5-1.1,1.1c0,0.8,0.8,1,2,1.4
			L45.9,9.5z"/>
		<path class="st0" d="M57.6,10.3c0,0.4,0,1.6-0.5,2.5c-0.6,1-1.5,1.2-2.2,1.2c-0.4,0-0.8-0.1-1.2-0.2c-1.6-0.7-1.6-2.6-1.6-3.3
			c0-0.8,0.1-1.8,0.6-2.6c0.7-1,1.8-1.1,2.2-1.1c1.1,0,1.7,0.5,2.1,1.1C57.6,8.6,57.6,9.8,57.6,10.3z M59.8,10.2
			c0-1.3-0.3-2.6-1.2-3.6c-0.9-0.9-2.2-1.3-3.5-1.3c-2,0-3.1,0.8-3.7,1.3c-1.3,1.2-1.4,3.1-1.4,3.8c0,0.6,0,2.5,1.4,3.8
			c0.6,0.6,1.7,1.2,3.5,1.2c1.4,0,2.5-0.3,3.4-1.1c0.6-0.6,1.1-1.3,1.3-2.2C59.7,11.4,59.8,10.8,59.8,10.2z"/>
		<path class="st0" d="M38.8,10.3c0,0.6-0.5,1.2-1.2,1.2c-0.6,0-1.2-0.5-1.2-1.2c0-0.6,0.5-1.2,1.2-1.2C38.3,9.2,38.8,9.7,38.8,10.3
			z"/>
	</g>
	<g>
		<g>
			<path class="st1" d="M11.9,2.2c0,1.4,0,2.3,0,3.6c0,3.1,0.1,6.2,0.2,9.3L12,15.2c-1.7,0-2.1,0-3.5,0.1l-0.1-0.1
				c0.1-2.6,0.1-3.2,0.1-5.7c-0.8,0-1.6,0-2.4,0c-0.8,0-1.5,0-2.4,0.1c0,2.7,0,3.3,0.2,5.6l-0.1,0.1c-1.7,0-2.1,0-3.5,0.1l-0.1-0.1
				c0-1.6,0.1-2.5,0.1-4.1c0-4.6-0.1-6.9-0.2-8.8l0.1-0.1c1.7,0,2,0,3.5-0.1l0.1,0.1l0,4.9c0.7,0,1.4,0,2.1,0c0.9,0,1.7,0,2.6,0
				c0-2.2,0-2.7-0.2-4.8l0.1-0.1c1.6,0,1.9,0,3.5-0.1L11.9,2.2z"/>
			<path class="st1" d="M17.3,9.2c0.1-0.6,0.2-1.3,0.9-1.8c0.2-0.1,0.5-0.2,0.8-0.2c0.6,0,1,0.3,1.3,0.6c0.3,0.4,0.3,0.8,0.3,1.3
				L17.3,9.2z M23.3,12.5c-0.7,0.4-1.6,0.8-3.1,0.8c-1.2,0-2-0.4-2.5-1c-0.3-0.4-0.4-0.8-0.4-1.1l6.3-0.1l0.1-0.1
				c0-0.9,0-1.8-0.3-2.8c-0.7-2.2-2.2-2.6-2.9-2.8c-0.5-0.1-0.9-0.2-1.4-0.2c-3.1,0-5.1,1.9-5.1,5.1c0,0.9,0.2,1.8,0.5,2.4
				c1.1,2.5,3.8,2.7,5.2,2.7c1.6,0,2.3-0.3,3.4-0.7l0.1-0.1l0.1-2.1L23.3,12.5z"/>
			<path class="st1" d="M31.6,9.2c1.1,0.4,2.6,0.9,2.6,3c0,0.1,0,0.3,0,0.4c-0.4,2.6-3.3,2.9-4.8,2.9c-1.4,0-2.3-0.3-3.2-0.6
				L26,14.6c0.1-0.9,0.1-1.1,0.1-2.1l0.2-0.1c0.3,0.2,0.5,0.4,0.8,0.5c0.7,0.4,1.5,0.5,2.1,0.5c1.1,0,1.6-0.5,1.6-1
				c0-0.7-0.9-0.9-1.4-1.1l-0.7-0.3c-0.9-0.3-2.6-0.9-2.6-2.9c0-0.7,0.3-1.3,0.5-1.6c1-1.4,2.9-1.5,3.9-1.5c1.3,0,2.1,0.2,3,0.5
				l0.1,0.1l-0.2,2l-0.2,0.1c-0.5-0.3-1.3-0.8-2.5-0.8c-1.2,0-1.4,0.6-1.4,0.8c0,0.5,0.5,0.7,1.2,0.9L31.6,9.2z"/>
		</g>
	</g>
</g>
</svg>
